<svg xmlns="http://www.w3.org/2000/svg" xmlns:xlink="http://www.w3.org/1999/xlink" version="1.1" x="0px" y="0px" viewBox="0 0 48 60" enable-background="new 0 0 48 48" xml:space="preserve"><g><g><g><path fill="#000000" d="M2.1,7.5C9.5,1.2,20.9,0.9,29.3,5c3.6,1.7-3,1.4-3.2,1.4c-2.6,0-5.3,0-7.9,0c-5.3,0-10.6-0.1-15.9-0.2     C1.4,6.2,1.4,7.4,2.1,7.5c10,0.1,20,0.1,29.9,0.1c0.5,0,0.7-0.5,0.5-0.9C30.3,2,23,1.2,18.4,0.9C12.5,0.7,5.8,2.8,1.3,6.6     C0.6,7.1,1.5,8,2.1,7.5L2.1,7.5z"/></g></g><g><g><path fill="#000000" d="M31.4,25.9c0.2-4.9,0.4-9.7,0.7-14.6c0-0.3-0.3-0.6-0.6-0.6c-5.2,0-10.4,0-15.5,0.1     c-4.4,0-10.3-0.9-14.5,0.4c-0.2,0.1-0.4,0.2-0.4,0.4c-0.6,2.6-0.1,5.7,0,8.4C1,23.8,1,27.6,1.1,31.4c0.1,5.2-0.9,10.8,4.1,13.8     c5.2,3.2,13.6,1.8,19.3,1.7c3.6-0.1,7.3-1.1,7.3-5.2c0-0.8-1.3-0.8-1.3,0c0,6.7-19.8,4-23.5,2.9C1.1,43,2.4,33.9,2.3,29.5     c-0.1-3.8-0.1-7.6-0.2-11.4c0-1.6-0.9-5.9,2.1-6c1.9,0,3.9,0,5.8-0.1c3.9,0,7.8-0.1,11.7-0.1c3.3,0,9.1-1.6,8.9,3     c-0.2,3.6-0.3,7.3-0.5,10.9C30.1,26.8,31.3,26.7,31.4,25.9L31.4,25.9z"/></g></g><g><g><path fill="#000000" d="M32,41.7c-2.3-3.4-4.2-7.5-3.6-11.7c0.9-6.1,9-6.7,13.2-4.5c4.5,2.4,5.4,8.3,3,12.5     c-2.2,3.8-9.1,5-12.9,3.1c-0.7-0.4-1.4,0.7-0.6,1.1c4.1,2,11.1,1.1,14-2.7c3.5-4.7,2.6-10.5-1.8-14.3c-4.2-3.7-10.4-2.6-14.1,1     c-4.5,4.4-1.2,11.9,1.7,16.1C31.4,43,32.4,42.4,32,41.7L32,41.7z"/></g></g><g><g><path fill="#000000" d="M33.5,36.8c1.8-2.5,4-4.5,6.6-6.2c0.7-0.4,0-1.5-0.6-1.1c-2.7,1.8-5.1,4.1-7,6.7     C31.9,36.8,33,37.4,33.5,36.8L33.5,36.8z"/></g></g><g><g><path fill="#000000" d="M32.5,30c1.9,2.5,3.9,4.8,6,7c0.6,0.6,1.4-0.3,0.9-0.9c-2-2.2-4-4.4-5.8-6.8C33.1,28.8,32,29.4,32.5,30     L32.5,30z"/></g></g><g><g><path fill="#000000" d="M7.8,18.2C7.3,25,7.4,31.7,8.2,38.5c0.1,0.8,1.3,0.8,1.3,0C8.7,31.7,8.6,25,9,18.2     C9.1,17.4,7.8,17.4,7.8,18.2L7.8,18.2z"/></g></g><g><g><path fill="#000000" d="M15.5,18.4c0,6.4-1.1,13.9,0.5,20.1c0.2,0.8,1.4,0.5,1.2-0.3c-1.5-6.1-0.4-13.5-0.4-19.8     C16.8,17.6,15.5,17.6,15.5,18.4L15.5,18.4z"/></g></g><g><g><path fill="#000000" d="M23.1,18.7c-0.1,7.3,0,14.6,0.4,21.9c0,0.8,1.3,0.8,1.3,0c-0.4-7.3-0.5-14.6-0.4-21.9     C24.4,17.9,23.1,17.9,23.1,18.7L23.1,18.7z"/></g></g></g><text x="0" y="63" fill="#000000" font-size="5px" font-weight="bold" font-family="'Helvetica Neue', Helvetica, Arial-Unicode, Arial, Sans-serif">Created by Creative Stall</text><text x="0" y="68" fill="#000000" font-size="5px" font-weight="bold" font-family="'Helvetica Neue', Helvetica, Arial-Unicode, Arial, Sans-serif">from the Noun Project</text></svg>